<?xml version="1.0" standalone="no"?>
<!DOCTYPE svg PUBLIC "-//W3C//DTD SVG 20010904//EN"
 "http://www.w3.org/TR/2001/REC-SVG-20010904/DTD/svg10.dtd">
<svg version="1.0" xmlns="http://www.w3.org/2000/svg"
 width="500.000000pt" height="500.000000pt" viewBox="0 0 500.000000 500.000000"
 preserveAspectRatio="xMidYMid meet">

<g transform="translate(0.000000,500.000000) scale(0.100000,-0.100000)"
fill="#000000" stroke="none">
<path d="M1690 2930 c0 -5 9 -10 19 -10 11 0 23 5 26 10 4 6 -5 10 -19 10 -14
0 -26 -4 -26 -10z"/>
<path d="M1794 2903 c19 -37 36 -51 29 -24 -3 11 -14 28 -25 38 -21 18 -21 18
-4 -14z"/>
<path d="M1632 2855 c2 -14 8 -26 13 -26 6 0 11 12 13 26 2 18 -1 25 -13 25
-12 0 -15 -7 -13 -25z"/>
<path d="M1720 2865 c-12 -15 -5 -55 10 -55 23 0 40 14 40 35 0 13 -7 26 -16
29 -21 8 -20 8 -34 -9z"/>
<path d="M2520 2525 l0 -355 85 0 85 0 0 355 0 355 -85 0 -85 0 0 -355z"/>
<path d="M3180 2758 l0 -121 -22 20 c-87 79 -228 73 -310 -14 -70 -74 -93
-228 -48 -330 39 -90 128 -153 214 -153 42 0 97 22 131 52 l35 30 0 -36 0 -36
80 0 80 0 0 355 0 355 -80 0 -80 0 0 -122z m-51 -214 c42 -35 58 -91 42 -145
-18 -61 -53 -89 -111 -89 -58 0 -93 28 -111 89 -25 84 31 171 111 171 27 0 48
-8 69 -26z"/>
<path d="M1120 2510 l0 -340 80 0 80 0 0 135 0 135 105 0 105 0 0 65 0 64
-102 3 -103 3 -3 68 -3 67 141 0 140 0 0 70 0 70 -220 0 -220 0 0 -340z"/>
<path d="M1803 2798 c-20 -26 -26 -41 -15 -34 12 7 36 46 29 46 -3 0 -9 -6
-14 -12z"/>
<path d="M1670 2770 c0 -13 32 -28 47 -23 10 4 9 8 -1 19 -17 16 -46 19 -46 4z"/>
<path d="M2120 2709 c-64 -10 -92 -23 -134 -60 -64 -56 -81 -100 -81 -209 0
-110 17 -152 83 -212 51 -46 101 -63 187 -62 93 0 165 37 213 108 48 72 46 76
-51 76 -76 0 -86 -2 -107 -25 -25 -27 -84 -34 -121 -15 -18 10 -49 59 -49 79
0 7 68 12 188 13 l187 3 -2 57 c-2 71 -35 149 -78 187 -57 50 -151 74 -235 60z
m121 -158 c53 -53 43 -61 -76 -61 -58 0 -105 2 -105 5 0 15 32 65 47 74 10 6
37 11 61 11 35 0 49 -6 73 -29z"/>
<path d="M3618 2709 c-70 -11 -124 -45 -148 -94 -51 -105 -1 -184 140 -220
106 -27 130 -40 130 -70 0 -54 -93 -57 -132 -4 -21 28 -26 29 -96 29 l-75 0 6
-34 c8 -51 44 -93 107 -124 108 -53 266 -28 321 50 30 41 35 104 12 148 -25
48 -68 74 -165 100 -46 12 -89 27 -95 32 -18 15 -16 55 3 62 48 19 114 -6 114
-42 0 -8 25 -12 76 -12 l77 0 -6 36 c-17 102 -134 164 -269 143z"/>
<path d="M1650 2440 l0 -270 80 0 80 0 0 270 0 270 -80 0 -80 0 0 -270z"/>
</g>
</svg>
